Coordinates
version=1
nRows=60
nColumns=12
inDegrees=yes

Units are S.I. units (second, meters, Newtons, ...)
Angles are in degrees

endheader
time	SC_y	SC_z	SC_x	AC_y	AC_z	AC_x	GH_y	GH_z	GH_yy	EL_x	PS_y
       0.0              -41.88          38.06          0.737          44.76          7.367         -17.88         -146.8           58.9         -81.86          93.07          30.93
   0.02535              -41.88          38.05         0.7425          44.76          7.366         -17.87         -146.7          58.91         -81.82          93.08          30.94
   0.05069              -41.88          38.05         0.7483          44.76          7.364         -17.87         -146.7          58.91         -81.78          93.08          30.96
   0.07604              -41.88          38.04         0.7544          44.76          7.362         -17.87         -146.6          58.91         -81.74          93.08          30.98
    0.1014              -41.88          38.03          0.761          44.76           7.36         -17.86         -146.6          58.92         -81.69          93.09          31.01
    0.1267              -41.88          38.03         0.7679          44.76          7.358         -17.86         -146.5          58.92         -81.65          93.09          31.03
    0.1521              -41.88          38.02         0.7754          44.76          7.355         -17.85         -146.5          58.92          -81.6           93.1          31.05
    0.1774              -41.88          38.01         0.7834          44.76          7.353         -17.84         -146.4          58.93         -81.54          93.11          31.08
    0.2028              -41.88           38.0         0.7919          44.76           7.35         -17.84         -146.3          58.93         -81.48          93.11          31.11
    0.2281              -41.88          37.99         0.8011          44.76          7.347         -17.83         -146.3          58.94         -81.42          93.12          31.14
    0.2535              -41.88          37.98         0.8109          44.76          7.344         -17.82         -146.2          58.94         -81.35          93.12          31.17
    0.2788              -41.88          37.97         0.8215          44.76           7.34         -17.82         -146.1          58.95         -81.28          93.13          31.21
    0.3042              -41.88          37.96         0.8329          44.76          7.337         -17.81         -146.0          58.95         -81.21          93.14          31.25
    0.3295              -41.88          37.95         0.8452          44.75          7.333          -17.8         -145.9          58.96         -81.12          93.15          31.29
    0.3549              -41.88          37.94         0.8586          44.75          7.328         -17.79         -145.8          58.96         -81.03          93.16          31.33
    0.3802              -41.88          37.92          0.873          44.75          7.324         -17.78         -145.7          58.97         -80.93          93.17          31.38
    0.4056              -41.88          37.91         0.8888          44.75          7.319         -17.77         -145.6          58.98         -80.83          93.18          31.43
    0.4309              -41.88          37.89         0.9059          44.75          7.313         -17.75         -145.5          58.99         -80.71          93.19          31.49
    0.4563              -41.88          37.87         0.9246          44.75          7.307         -17.74         -145.4           59.0         -80.58          93.21          31.55
    0.4816              -41.88          37.85         0.9451          44.75          7.301         -17.73         -145.2          59.01         -80.44          93.22          31.62
    0.5069              -41.88          37.83         0.9676          44.75          7.293         -17.71         -145.0          59.02         -80.29          93.24           31.7
    0.5323              -41.88           37.8         0.9923          44.75          7.286         -17.69         -144.8          59.03         -80.12          93.25          31.78
    0.5576              -41.88          37.77           1.02          44.75          7.277         -17.67         -144.6          59.05         -79.94          93.27          31.87
     0.583              -41.88          37.74           1.05          44.74          7.267         -17.65         -144.4          59.06         -79.73          93.29          31.97
    0.6083              -41.88          37.71          1.084          44.74          7.256         -17.62         -144.2          59.08         -79.51          93.32          32.08
    0.6337              -41.88          37.67          1.121          44.74          7.244          -17.6         -143.9           59.1         -79.25          93.35          32.21
     0.659              -41.88          37.63          1.163          44.74          7.231         -17.56         -143.6          59.12         -78.97          93.38          32.35
    0.6844              -41.88          37.58          1.211          44.73          7.215         -17.53         -143.2          59.14         -78.64          93.41          32.51
    0.7097              -41.88          37.53          1.264          44.73          7.198         -17.49         -142.8          59.17         -78.28          93.45          32.69
    0.7351              -41.88          37.47          1.325          44.73          7.179         -17.45         -142.4           59.2         -77.87          93.49          32.89
    0.7604              -41.87           37.4          1.394          44.72          7.157         -17.39         -141.8          59.24          -77.4          93.54          33.12
    0.7858              -41.87          37.31          1.474          44.72          7.131         -17.34         -141.3          59.28         -76.86           93.6          33.39
    0.8111              -41.87          37.22          1.566          44.72          7.102         -17.27         -140.6          59.32         -76.24          93.66          33.69
    0.8365              -41.87          37.11          1.672          44.71          7.067         -17.19         -139.8          59.38         -75.51          93.74          34.05
    0.8618              -41.87          36.99          1.797           44.7          7.027          -17.1         -138.8          59.44         -74.67          93.83          34.47
    0.8872              -41.87          36.84          1.944          44.69           6.98         -16.99         -137.7          59.51         -73.67          93.93          34.96
    0.9125              -41.86          36.66          2.119          44.68          6.924         -16.86         -136.4           59.6         -72.48          94.06          35.54
    0.9379              -41.86          36.45          2.329          44.67          6.857         -16.71         -134.9          59.71         -71.06          94.21          36.24
    0.9632              -41.86          36.19          2.583          44.66          6.775         -16.52         -133.0          59.84         -69.34          94.39          37.09
    0.9885              -41.85          35.88          2.893          44.64          6.676         -16.29         -130.7          59.99         -67.24          94.61          38.12
     1.014              -41.85           35.5          3.275          44.62          6.553         -16.01         -127.8          60.19         -64.64          94.88           39.4
     1.039              -41.84          35.01          3.752           44.6            6.4         -15.66         -124.2          60.43         -61.41          95.22           41.0
     1.065              -41.83          34.41          4.353          44.56          6.207         -15.21         -119.7          60.73         -57.34          95.65           43.0
      1.09              -41.82          33.64          5.117          44.52          5.962         -14.65         -114.0          61.12         -52.16          96.19          45.55
     1.115              -41.81          32.65          6.094          44.47          5.648         -13.93         -106.7          61.61         -45.53          96.89          48.82
     1.141              -41.79          31.38          7.349           44.4          5.246          -13.0         -97.37          62.24         -37.02          97.78          53.01
     1.166              -41.77          29.76          8.952          44.31          4.731         -11.82          -85.4          63.05         -26.15          98.92          58.36
     1.191              -41.74          27.73          10.97           44.2          4.085         -10.34         -70.35          64.07         -12.49          100.4          65.09
     1.217               -41.7          25.25          13.42          44.06          3.297         -8.526         -52.01          65.31          4.163          102.1          73.29
     1.242              -41.66          22.37          16.27          43.91          2.383         -6.427         -30.76          66.75          23.46          104.1           82.8
     1.267              -41.62          19.26          19.35          43.74          1.394         -4.155         -7.739          68.31          44.36          106.3          93.09
     1.293              -41.58          16.15          22.43          43.57         0.4053         -1.883          15.28          69.86          65.26          108.5          103.4
     1.318              -41.54          13.27          25.28          43.41        -0.5081         0.2159          36.54           71.3          84.56          110.6          112.9
     1.343               -41.5          10.79          27.73          43.28         -1.296          2.026          54.88          72.54          101.2          112.3          121.1
     1.369              -41.47          8.759          29.75          43.17         -1.943          3.512          69.93          73.56          114.9          113.7          127.8
     1.394              -41.45          7.141          31.35          43.08         -2.457          4.694           81.9          74.37          125.7          114.9          133.2
     1.419              -41.43          5.874          32.61          43.01          -2.86          5.619          91.27           75.0          134.3          115.8          137.4
     1.445              -41.42          4.886          33.58          42.96         -3.173           6.34          98.57           75.5          140.9          116.5          140.6
      1.47              -41.41          4.115          34.35          42.92         -3.418          6.903          104.3          75.88          146.1          117.0          143.2
     1.495               -41.4          3.508          34.95          42.88         -3.611          7.346          108.8          76.19          150.1          117.4          145.2
